<svg width="213" height="171" viewBox="0 0 213 171" fill="none" xmlns="http://www.w3.org/2000/svg">
<path d="M155.049 112.182C155.056 119.644 153.492 127.024 150.46 133.85C147.427 140.677 142.992 146.798 137.438 151.823C135.894 153.223 134.27 154.533 132.574 155.748C130.398 157.307 128.108 158.702 125.722 159.92H125.697C125.188 160.185 124.671 160.438 124.15 160.682C123.913 160.798 123.679 160.906 123.437 161.013C121.929 161.701 120.381 162.317 118.794 162.864C117.544 163.278 116.26 163.692 114.963 164.031C107.486 166.006 99.6697 166.372 92.0384 165.103C91.1339 164.954 90.2419 164.784 89.3541 164.59L88.6038 164.42C86.339 163.895 84.1112 163.223 81.9347 162.408C80.6703 161.936 79.431 161.419 78.2167 160.856C77.7457 160.637 77.2747 160.413 76.812 160.181C76.4952 160.024 76.1826 159.862 75.87 159.701C67.3889 155.278 60.244 148.695 55.1668 140.627C50.0896 132.56 47.2626 123.297 46.9754 113.787C46.6881 104.278 48.9508 94.8632 53.5319 86.5078C58.1129 78.1523 64.8476 71.1562 73.0464 66.2357C81.2452 61.3153 90.6135 58.6473 100.192 58.5051C109.77 58.3628 119.215 60.7514 127.558 65.4262C135.901 70.101 142.844 76.894 147.674 85.1097C152.505 93.3254 155.05 102.669 155.049 112.182Z" fill="url(#paint0_linear_1_295)"/>
<path d="M115.164 116.065C118.606 119.584 128.635 133.278 128.635 133.278L122.475 142.248L116.935 124.427L115.164 116.065Z" fill="url(#paint1_linear_1_295)"/>
<path d="M125.697 159.949C125.188 160.214 124.671 160.467 124.15 160.711C123.913 160.827 123.679 160.935 123.437 161.042C121.928 161.729 120.381 162.346 118.794 162.893C117.544 163.307 116.26 163.721 114.963 164.06C107.486 166.035 99.6697 166.401 92.0384 165.132C91.1339 164.983 90.2419 164.813 89.354 164.619C86.1029 166.846 83.1017 168.73 81.1135 169.586L81.2761 168.208L81.9513 162.441L83.5144 149.025L89.7083 143.076L75.7824 144.148C75.7824 144.148 77.2454 123.989 82.9559 119.841C88.6663 115.693 94.656 111.975 94.656 111.975C95.3706 112.443 96.1577 112.792 96.986 113.006V113.006C98.9666 113.55 101.025 113.758 103.076 113.623C105.518 113.511 107.961 111.255 108.078 111.139C108.078 111.139 111.912 111.897 115.163 116.082C116.785 118.236 117.949 120.695 118.586 123.31C119.386 126.369 120.807 133.514 122.424 142.145C123.483 147.7 124.596 153.86 125.697 159.949Z" fill="url(#paint2_linear_1_295)"/>
<path d="M128.635 133.294L134.579 140.212L155.482 119.605L156.274 115.386L160.443 111.789L158.588 117.274V124.419C158.588 124.419 142.465 150.374 138.022 151.712C132.824 153.28 122.483 142.24 122.483 142.24L128.635 133.294Z" fill="url(#paint3_linear_1_295)"/>
<path d="M106.935 142.753L111.783 154.344L118.048 151.67L113.455 140.328L106.935 142.753Z" fill="#7E57C2"/>
<path d="M113.688 150.242C112.909 150.879 111.746 150.73 110.303 150.805C108.366 150.856 106.507 151.579 105.051 152.85C103.113 154.469 97.6946 158.703 92.276 162.57C91.2923 163.269 90.3086 163.961 89.3582 164.64C86.107 166.867 83.1059 168.75 81.1177 169.607C80.595 169.865 80.0306 170.029 79.4504 170.091C76.6661 170.162 76.07 164.366 75.8991 159.742C75.845 158.207 75.8325 156.803 75.8033 155.789C75.6866 151.732 75.8033 144.198 75.8033 144.198L89.7292 143.122L88.2537 152.701L87.9952 154.394V154.406L92.1634 152.875L92.2926 152.829L107.09 147.369L108.111 145.618L108.761 147.274H108.824L115.159 146.446C115.159 146.446 115.268 148.955 113.688 150.242Z" fill="url(#paint4_linear_1_295)"/>
<path d="M110.491 89.8284C110.128 88.8432 109.816 88.1725 109.724 87.9738V87.9242C109.724 87.9242 109.403 88.7107 106.985 88.5203C104.568 88.3298 103.768 87.1376 103.768 87.1376C103.768 87.1376 104.526 89.7208 101.646 90.826C98.8742 91.8941 97.7821 91.2027 97.7071 91.1531C97.853 91.3104 100.02 93.612 98.5824 95.4376C97.0944 97.3294 93.7473 96.9568 93.7473 96.9568V96.9817C94.1685 97.929 94.6402 98.8534 95.1603 99.751C95.4354 100.223 95.7064 100.658 95.994 101.063V101.092C96.7321 102.285 97.7289 103.299 98.9117 104.06C98.3918 107.09 96.8989 109.871 94.656 111.988V111.988C95.4105 112.379 96.1887 112.723 96.986 113.019C98.5407 113.602 100.629 114.182 102.492 114.02C104.651 113.791 106.646 112.769 108.086 111.156L107.131 107.517L106.273 104.238C114.034 102.272 111.9 93.7196 110.491 89.8284ZM105.839 104.358L105.977 104.325L106.198 104.263C105.876 104.401 105.537 104.493 105.189 104.536C105.368 104.491 105.552 104.441 105.743 104.383L105.839 104.358Z" fill="url(#paint5_linear_1_295)"/>
<path d="M115.163 87.8166C111.962 90.7391 110.578 89.9154 110.491 89.8367V89.8284C110.128 88.8432 109.816 88.1726 109.728 87.9739L109.707 87.9242C109.707 87.9242 109.382 88.7107 106.965 88.5203C104.547 88.3299 103.751 87.1377 103.751 87.1377C103.751 87.1377 104.51 89.7208 101.629 90.8261C98.8533 91.8941 97.7613 91.2028 97.6904 91.1531C97.8363 91.3063 100.004 93.6079 98.5657 95.4335C97.0777 97.3253 93.7306 96.9568 93.7306 96.9568V96.9776C94.1517 97.9263 94.6234 98.8521 95.1436 99.7511C95.4215 100.22 95.6994 100.658 95.9773 101.063V101.092C95.9773 101.092 94.8352 103.324 92.797 103.278C90.7587 103.233 90.7129 101.208 90.7129 101.208C90.7129 101.208 89.2707 103.791 84.8149 101.303C80.3591 98.8155 83.331 95.2099 83.331 95.2099C83.331 95.2099 80.1715 92.809 80.1715 89.2116C80.1715 85.6143 85.09 82.878 85.09 82.878C85.09 82.878 83.331 78.7011 86.2987 76.3995C89.2665 74.0979 93.7265 75.6585 93.7265 75.6585C93.7265 75.6585 93.6389 70.3143 98.1823 70.4012C102.726 70.4881 103.755 73.2493 103.755 73.2493C103.755 73.2493 107.84 70.1114 111.883 73.0671C115.926 76.0228 114.263 81.1766 114.263 81.1766C114.263 81.1766 118.502 84.774 115.163 87.8166Z" fill="url(#paint6_linear_1_295)"/>
<path opacity="0.15" d="M107.165 107.505C105.227 106.896 101.779 104.574 101.779 104.574C103.14 104.717 104.514 104.644 105.852 104.358L105.989 104.325L106.256 104.247H106.294L107.165 107.505Z" fill="black"/>
<path opacity="0.15" d="M91.5882 130.695L89.7083 143.114L88.2328 152.693L84.7982 155.528L92.2718 152.833C92.2718 152.833 90.3336 147.336 91.5882 130.695Z" fill="black"/>
<path opacity="0.15" d="M89.3458 164.619C90.2336 164.813 91.1256 164.983 92.0301 165.132C92.0759 164.284 92.1593 163.427 92.276 162.57L89.3458 164.619Z" fill="black"/>
<g filter="url(#filter0_d_1_295)">
<path d="M71.2808 10H48.9935C45.918 10 43.4248 12.4761 43.4248 15.5305V37.6651C43.4248 40.7195 45.918 43.1956 48.9935 43.1956H71.2808C74.3564 43.1956 76.8495 40.7195 76.8495 37.6651V15.5305C76.8495 12.4761 74.3564 10 71.2808 10Z" fill="#56CCF2"/>
</g>
<g clip-path="url(#clip0_1_295)">
<path d="M68.5 25.4375H65.1119L67.7444 22.805L66.5987 21.6513L62.8125 25.4375H61.1875V23.8125L64.9737 20.0263L63.82 18.8806L61.1875 21.5131V18.125H59.5625V21.5131L56.93 18.8806L55.7763 20.0263L59.5625 23.8125V25.4375H57.9375L54.1513 21.6513L53.0056 22.805L55.6381 25.4375H52.25V27.0625H55.6381L53.0056 29.695L54.1513 30.8487L57.9375 27.0625H59.5625V28.6875L55.7763 32.4737L56.93 33.6194L59.5625 30.9869V34.375H61.1875V30.9869L63.82 33.6194L64.9737 32.4737L61.1875 28.6875V27.0625H62.8125L66.5987 30.8487L67.7444 29.695L65.1119 27.0625H68.5V25.4375Z" fill="white"/>
</g>
<g filter="url(#filter1_d_1_295)">
<path d="M186.544 93.6875H164.256C161.181 93.6875 158.688 96.1636 158.688 99.218V121.353C158.688 124.407 161.181 126.883 164.256 126.883H186.544C189.619 126.883 192.112 124.407 192.112 121.353V99.218C192.112 96.1636 189.619 93.6875 186.544 93.6875Z" fill="#F2C94C"/>
</g>
<path d="M183.062 107.5C183.062 103.438 179.812 100.188 175.75 100.188C171.688 100.188 168.438 103.438 168.438 107.5C168.438 110.019 169.737 112.294 171.688 113.594V115.625C171.688 116.681 172.337 117.575 173.312 117.9V118.062C173.312 119.444 174.369 120.5 175.75 120.5C177.131 120.5 178.188 119.444 178.188 118.062V117.9C179.163 117.575 179.812 116.681 179.812 115.625V113.594C181.763 112.294 183.062 110.019 183.062 107.5ZM170.062 107.5C170.062 104.331 172.581 101.812 175.75 101.812C178.919 101.812 181.438 104.331 181.438 107.5C181.438 110.344 179.325 112.7 176.562 113.106V111.075L177.944 109.694C178.269 109.369 178.269 108.881 177.944 108.556C177.619 108.231 177.131 108.231 176.806 108.556L175.75 109.613L174.694 108.556C174.369 108.231 173.881 108.231 173.556 108.556C173.231 108.881 173.231 109.369 173.556 109.694L174.938 111.075V113.106C172.175 112.7 170.062 110.344 170.062 107.5ZM175.75 118.875C175.262 118.875 174.938 118.55 174.938 118.062H176.562C176.562 118.55 176.238 118.875 175.75 118.875ZM178.188 115.625C178.188 116.113 177.863 116.438 177.375 116.438H174.125C173.637 116.438 173.312 116.113 173.312 115.625V114.406C174.044 114.65 174.856 114.812 175.75 114.812C176.644 114.812 177.456 114.65 178.188 114.406V115.625Z" fill="white"/>
<g filter="url(#filter2_d_1_295)">
<path d="M37.856 93.6875H15.5687C12.4932 93.6875 10 96.1636 10 99.218V121.353C10 124.407 12.4932 126.883 15.5687 126.883H37.856C40.9315 126.883 43.4247 124.407 43.4247 121.353V99.218C43.4247 96.1636 40.9315 93.6875 37.856 93.6875Z" fill="#F58A8A"/>
</g>
<g clip-path="url(#clip1_1_295)">
<path d="M31.9375 107.5H31.125V105.875C31.125 103.633 29.305 101.812 27.0625 101.812C24.82 101.812 23 103.633 23 105.875V107.5H22.1875C21.2937 107.5 20.5625 108.231 20.5625 109.125V117.25C20.5625 118.144 21.2937 118.875 22.1875 118.875H31.9375C32.8313 118.875 33.5625 118.144 33.5625 117.25V109.125C33.5625 108.231 32.8313 107.5 31.9375 107.5ZM27.0625 114.812C26.1687 114.812 25.4375 114.081 25.4375 113.188C25.4375 112.294 26.1687 111.562 27.0625 111.562C27.9563 111.562 28.6875 112.294 28.6875 113.188C28.6875 114.081 27.9563 114.812 27.0625 114.812ZM29.5813 107.5H24.5437V105.875C24.5437 104.486 25.6731 103.356 27.0625 103.356C28.4519 103.356 29.5813 104.486 29.5813 105.875V107.5Z" fill="white"/>
</g>
<g filter="url(#filter3_d_1_295)">
<path d="M149.981 10H127.694C124.618 10 122.125 12.4761 122.125 15.5305V37.6651C122.125 40.7195 124.618 43.1956 127.694 43.1956H149.981C153.057 43.1956 155.55 40.7195 155.55 37.6651V15.5305C155.55 12.4761 153.057 10 149.981 10Z" fill="#6FCF97"/>
</g>
<path d="M143.503 22.1033H130.234V30.3964H143.503V22.1033Z" fill="white"/>
<path d="M147.079 23.7537L144.15 24.9847V27.5502L147.079 28.7812H148.141V23.7537H147.079Z" fill="white"/>
<defs>
<filter id="filter0_d_1_295" x="33.4248" y="0" width="63.4247" height="63.1956" filterUnits="userSpaceOnUse" color-interpolation-filters="sRGB">
<feFlood flood-opacity="0" result="BackgroundImageFix"/>
<feColorMatrix in="SourceAlpha" type="matrix" values="0 0 0 0 0 0 0 0 0 0 0 0 0 0 0 0 0 0 127 0" result="hardAlpha"/>
<feOffset dx="5" dy="5"/>
<feGaussianBlur stdDeviation="7.5"/>
<feColorMatrix type="matrix" values="0 0 0 0 0 0 0 0 0 0 0 0 0 0 0 0 0 0 0.15 0"/>
<feBlend mode="normal" in2="BackgroundImageFix" result="effect1_dropShadow_1_295"/>
<feBlend mode="normal" in="SourceGraphic" in2="effect1_dropShadow_1_295" result="shape"/>
</filter>
<filter id="filter1_d_1_295" x="148.688" y="83.6875" width="63.4247" height="63.1956" filterUnits="userSpaceOnUse" color-interpolation-filters="sRGB">
<feFlood flood-opacity="0" result="BackgroundImageFix"/>
<feColorMatrix in="SourceAlpha" type="matrix" values="0 0 0 0 0 0 0 0 0 0 0 0 0 0 0 0 0 0 127 0" result="hardAlpha"/>
<feOffset dx="5" dy="5"/>
<feGaussianBlur stdDeviation="7.5"/>
<feColorMatrix type="matrix" values="0 0 0 0 0 0 0 0 0 0 0 0 0 0 0 0 0 0 0.15 0"/>
<feBlend mode="normal" in2="BackgroundImageFix" result="effect1_dropShadow_1_295"/>
<feBlend mode="normal" in="SourceGraphic" in2="effect1_dropShadow_1_295" result="shape"/>
</filter>
<filter id="filter2_d_1_295" x="0" y="83.6875" width="63.4247" height="63.1956" filterUnits="userSpaceOnUse" color-interpolation-filters="sRGB">
<feFlood flood-opacity="0" result="BackgroundImageFix"/>
<feColorMatrix in="SourceAlpha" type="matrix" values="0 0 0 0 0 0 0 0 0 0 0 0 0 0 0 0 0 0 127 0" result="hardAlpha"/>
<feOffset dx="5" dy="5"/>
<feGaussianBlur stdDeviation="7.5"/>
<feColorMatrix type="matrix" values="0 0 0 0 0 0 0 0 0 0 0 0 0 0 0 0 0 0 0.15 0"/>
<feBlend mode="normal" in2="BackgroundImageFix" result="effect1_dropShadow_1_295"/>
<feBlend mode="normal" in="SourceGraphic" in2="effect1_dropShadow_1_295" result="shape"/>
</filter>
<filter id="filter3_d_1_295" x="112.125" y="0" width="63.4247" height="63.1956" filterUnits="userSpaceOnUse" color-interpolation-filters="sRGB">
<feFlood flood-opacity="0" result="BackgroundImageFix"/>
<feColorMatrix in="SourceAlpha" type="matrix" values="0 0 0 0 0 0 0 0 0 0 0 0 0 0 0 0 0 0 127 0" result="hardAlpha"/>
<feOffset dx="5" dy="5"/>
<feGaussianBlur stdDeviation="7.5"/>
<feColorMatrix type="matrix" values="0 0 0 0 0 0 0 0 0 0 0 0 0 0 0 0 0 0 0.15 0"/>
<feBlend mode="normal" in2="BackgroundImageFix" result="effect1_dropShadow_1_295"/>
<feBlend mode="normal" in="SourceGraphic" in2="effect1_dropShadow_1_295" result="shape"/>
</filter>
<linearGradient id="paint0_linear_1_295" x1="101.222" y1="64.3279" x2="99.3985" y2="170.124" gradientUnits="userSpaceOnUse">
<stop stop-color="white" stop-opacity="0"/>
<stop offset="1" stop-color="#64B5F6" stop-opacity="0.6"/>
</linearGradient>
<linearGradient id="paint1_linear_1_295" x1="111.083" y1="112.509" x2="125.83" y2="138.602" gradientUnits="userSpaceOnUse">
<stop stop-color="#E57373"/>
<stop offset="1" stop-color="#AD1457"/>
</linearGradient>
<linearGradient id="paint2_linear_1_295" x1="22866.6" y1="32334.9" x2="21313.1" y2="40054.8" gradientUnits="userSpaceOnUse">
<stop stop-color="#E57373"/>
<stop offset="1" stop-color="#AD1457"/>
</linearGradient>
<linearGradient id="paint3_linear_1_295" x1="166.099" y1="122.076" x2="125.853" y2="145.552" gradientUnits="userSpaceOnUse">
<stop stop-color="#FFF8E1"/>
<stop offset="1" stop-color="#FFCC80"/>
</linearGradient>
<linearGradient id="paint4_linear_1_295" x1="17594.5" y1="18136.6" x2="15424.5" y2="16663.3" gradientUnits="userSpaceOnUse">
<stop stop-color="#FFF8E1"/>
<stop offset="1" stop-color="#FFCC80"/>
</linearGradient>
<linearGradient id="paint5_linear_1_295" x1="114.572" y1="94.044" x2="92.6001" y2="103.155" gradientUnits="userSpaceOnUse">
<stop stop-color="#FFF8E1"/>
<stop offset="1" stop-color="#FFCC80"/>
</linearGradient>
<linearGradient id="paint6_linear_1_295" x1="109.52" y1="70.2439" x2="83.9806" y2="104.99" gradientUnits="userSpaceOnUse">
<stop stop-color="#FFB74D"/>
<stop offset="1" stop-color="#F4511E"/>
</linearGradient>
<clipPath id="clip0_1_295">
<rect width="19.5" height="19.5" fill="white" transform="translate(50.625 16.5)"/>
</clipPath>
<clipPath id="clip1_1_295">
<rect width="19.5" height="19.5" fill="white" transform="translate(17.3125 101)"/>
</clipPath>
</defs>
</svg>
